<svg xmlns="http://www.w3.org/2000/svg" viewBox="0 0 283.4646 283.4646"><g id="Layer_2" data-name="Layer 2"><rect width="283.4646" height="283.4646" fill="#cc9321"/></g><g id="Layer_5" data-name="Layer 5"><path d="M104.34,40.8352a18.8666,18.8666,0,0,0,11.7633,5.0927,19.282,19.282,0,0,0,6.0837-.8067c1.01-.2829,1.9889-.6872,3.0085-1.0612l3.14-1.3734A109.3157,109.3157,0,0,0,140.5283,36.01c4.0164-2.5174,7.9893-5.3579,12.0969-8.0566a72.6813,72.6813,0,0,1,13.0625-7.09,55.0279,55.0279,0,0,1,14.5781-3.9585c1.2689-.1688,2.5514-.2457,3.8411-.3206,1.2916-.012,2.5888-.0161,3.8939.0807a31.0586,31.0586,0,0,1,7.8273,1.4785,24.5164,24.5164,0,0,1,3.815,1.6364,17.9457,17.9457,0,0,1,1.83,1.11,17.6787,17.6787,0,0,1,1.7136,1.2751,29.4608,29.4608,0,0,1,2.9013,2.8183c.4436.4925.869.9955,1.2853,1.5076.2091.2555.4112.5166.61.7847l.2994.406.1512.21.0784.1107.04.0568.15.2157a3.78,3.78,0,0,1,.1931.3335l-.2928-.4773a29.3288,29.3288,0,0,1,3.8656,8.2256,26.7516,26.7516,0,0,1,1.0823,8.9478,29.287,29.287,0,0,1-1.7835,8.6,37.8789,37.8789,0,0,1-3.9,7.58,74.6769,74.6769,0,0,1-5.0389,6.6729,42.8739,42.8739,0,0,1-6.0753,5.7218A56.2655,56.2655,0,0,1,182.03,81.886l-.65-2.4418a33.2873,33.2873,0,0,0,14.8626-6.235,31.7911,31.7911,0,0,0,5.853-5.6632,47.7689,47.7689,0,0,0,4.4352-6.8469,25.4131,25.4131,0,0,0,2.944-15.2487,27.3607,27.3607,0,0,0-6.1091-13.4491l-.293-.4777a2.7563,2.7563,0,0,0,.1591.2883c.0535.0871.1515.2166.1164.17l-.0285-.0332-.0591-.0687-.1269-.1461-.2664-.3-.55-.6027c-.3713-.401-.7511-.7962-1.14-1.1759a31.0617,31.0617,0,0,0-2.38-2.1205,19.8525,19.8525,0,0,0-5.2743-2.8794,39.9545,39.9545,0,0,0-12.969-2.3376,41,41,0,0,0-26.0859,8.2862c-3.8169,2.81-7.2557,6.1652-11.0012,9.376A56.2017,56.2017,0,0,1,131.0251,48.4c-1.1406.5562-2.3294,1.01-3.4941,1.5122-.5956.2384-1.276.4172-1.91.6246a13.8937,13.8937,0,0,1-1.96.5336,20.4375,20.4375,0,0,1-8.2611.14,16.8257,16.8257,0,0,1-7.4076-3.4794,15.71,15.71,0,0,1-4.7011-6.25Z" fill="#223a5e"/><path d="M119.1467,31.988c-2.4775-.7941-4.7843-1.593-7.0793-2.2621-1.142-.3422-2.2792-.6473-3.4-.9446l-3.4486-.8572A57.978,57.978,0,0,0,98.71,26.4957,21.3636,21.3636,0,0,0,92.936,26.43,21.1025,21.1025,0,0,0,82.412,31.08a15.5371,15.5371,0,0,0-3.5869,4.2447,10.379,10.379,0,0,0-1.0286,2.44c-.12.4532-.2419.9537-.3518,1.5222l-.3306,1.7286c-1.5467,8.8748-.8629,18.6389,3.2435,27.1768A36.5759,36.5759,0,0,0,100.963,86.9193L99.98,89.138a66.4917,66.4917,0,0,1-12.2765-8.3467A50.9868,50.9868,0,0,1,78,69.5051a53.331,53.331,0,0,1-8.1117-29.1729l.06-1.8967c.0268-.6391.0595-1.345.1595-2.0874a17.9221,17.9221,0,0,1,1.1886-4.4861,22.0359,22.0359,0,0,1,5.046-7.39,26.1085,26.1085,0,0,1,7.1877-4.9008,25.6706,25.6706,0,0,1,8.42-2.32,22.4094,22.4094,0,0,1,8.7055.9279,32.9434,32.9434,0,0,1,7.26,3.3262l1.5885.9867c.56.3415,1.1047.71,1.639,1.0892a31.4476,31.4476,0,0,1,3.0549,2.4443A25.8067,25.8067,0,0,1,119.1467,31.988Z" fill="#223a5e"/><path d="M93.1053,63.565c1.7019,3.5112,3.26,7.0755,4.8261,10.6367,1.5313,3.574,3.05,7.1526,4.5034,10.7554,1.4948,3.5875,2.8722,7.2181,4.306,10.8281l4.1255,10.8945-2.2342-1.4971c3.569-.1037,7.1417-.1147,10.708.0422,3.5636.199,7.1249.4543,10.6566.9563,3.5358.4553,7.043,1.1046,10.5151,1.8767a98.0933,98.0933,0,0,1,10.2533,2.91l-.2852,1.2059c-3.4976-.4391-6.9658-.9115-10.4445-1.2539-3.4718-.3786-6.9456-.66-10.4157-.8854-3.4736-.1837-6.9407-.3772-10.4126-.3912-3.4693-.0594-6.9393-.0362-10.4043.1165l-1.6725.0737-.562-1.5711-3.9234-10.9689c-1.2492-3.6779-2.5547-7.3351-3.7429-11.0354-1.23-3.6852-2.3938-7.3943-3.5455-11.1081-1.1167-3.7267-2.2417-7.45-3.2228-11.2269Z" fill="#223a5e"/><path d="M107.3845,66.6163a54.8035,54.8035,0,0,0,8.2843,4.9039,53.01,53.01,0,0,0,9.0191,3.2744,47.6469,47.6469,0,0,0,9.4247,1.4985,81.6316,81.6316,0,0,0,9.606-.1094,123.0768,123.0768,0,0,0,19.0487-2.5384c3.1323-.6626,6.2429-1.4245,9.313-2.3084q2.3-.6725,4.5646-1.4287l2.2435-.7826,1.0979-.4114.5288-.21.2426-.1019.0927-.0424c.0185-.0082.0162-.0086.008-.0059l-.0627.0288-.0742.0391c.5107-.4455-1.4633.856-1.14,2.1784a2.3978,2.3978,0,0,0,.1174.5638,2.1876,2.1876,0,0,0,.1524.3553,2.202,2.202,0,0,0,2.2255,1.139,1.962,1.962,0,0,0,.5007-.1321,1.9823,1.9823,0,0,0,.3485-.18,1.8493,1.8493,0,0,0,.3849-.327,1.5941,1.5941,0,0,0,.1475-.1893c.1156-.1875.0951-.1945.0919-.1848a1.67,1.67,0,0,0-.1173.3222c-.0907.3122-.1751.6944-.25,1.0831-.15.7835-.2738,1.6126-.3853,2.4467-.2227,1.6717-.4017,3.3758-.5655,5.0828-.3251,3.4169-.5856,6.8572-.8264,10.2994-.4764,6.8869-.8619,13.7908-1.2191,20.6962l-1.1224-.0112c-.2155-6.9161-.4027-13.8338-.498-20.7642-.0449-3.4661-.07-6.9337-.0285-10.4183.0225-1.7435.06-3.4889.1476-5.2589.0449-.8865.1018-1.7764.2-2.7029.0507-.466.11-.9365.2132-1.4662a6.5027,6.5027,0,0,1,.245-.9209,3.35,3.35,0,0,1,.3766-.765,2.9651,2.9651,0,0,1,.2466-.3173,2.5363,2.5363,0,0,1,.5075-.4318,2.4857,2.4857,0,0,1,.4192-.2184,2.6159,2.6159,0,0,1,.5787-.1541,2.36,2.36,0,0,1,2.5192,1.4844,1.556,1.556,0,0,1,.1308.5651c.3134,1.33-1.67,2.6412-1.1709,2.2l-.108.0561-.1317.0605-.1319.0532-.19.07-.3265.1107-.6161.1956-1.2065.3579-2.3986.6524q-2.3981.6209-4.8066,1.142c-3.209.7111-6.4329,1.3267-9.6753,1.82a125.8935,125.8935,0,0,1-19.5726,1.5027,94.517,94.517,0,0,1-9.8182-.3165,49.2712,49.2712,0,0,1-9.6708-1.9394,56.9911,56.9911,0,0,1-17.379-8.9135Z" fill="#223a5e"/><path d="M105.6164,93.1859a90.5878,90.5878,0,0,1,26.4-.8016,97.9382,97.9382,0,0,1,25.2545,6.39l-.0293.0852a96.5905,96.5905,0,0,0-25.3963-3.8769A86.6959,86.6959,0,0,0,106.75,98.1762Z" fill="#223a5e"/></g><g id="Peony_Blue" data-name="Peony Blue"><path d="M41.9462,186.2513a33.907,33.907,0,0,1-13.9942-3.0469c-1.7676.9028-5.5391,2.6221-8.6177,2.6221-5.4223,0-8.9262-2.67-8.9262-6.8018,0-4.1045,3.1811-6.9712,7.7363-6.9712A19.5755,19.5755,0,0,1,24.23,173.24c1.2281-3.1264,4.502-12.5844,8.4034-32.87,1.125-6.0967,9.9228-8.7016,14.2929-9.3135a28.0169,28.0169,0,0,0-7.19-.8252c-11.4214,0-19.3809,6.7647-19.3809,12.8355,0,1.05.524,1.4648,2.145,2.4736,1.753,1.0908,4.4,2.7393,4.4,6.6221a7.9872,7.9872,0,0,1-8.3315,7.9912c-5.1963,0-10.4565-3.9126-10.4565-11.3916,0-14.7329,14.6547-25.8428,34.0883-25.8428,14.8623,0,30.8584,8.5391,30.8584,27.2881C73.0594,173.7259,54.99,186.2513,41.9462,186.2513Zm-8.2876-8.4751a16.9548,16.9548,0,0,0,6.5874,1.248c7.3413,0,17.6806-9.31,17.6806-30.0068,0-7.4966-1.8686-12.5972-5.8657-15.57a4.1871,4.1871,0,0,1,.0869.8642c0,1.1783-.5815,2.24-1.5454,3.9991a63.144,63.144,0,0,0-4.0322,8.6533C40.4,163.3475,36.6063,172.409,33.6586,177.7762Z"/><path d="M41.9462,185.5428a33.1043,33.1043,0,0,1-14.0074-3.1294c-1.5688.8242-5.4892,2.7046-8.6045,2.7046-4.9922,0-8.2177-2.3916-8.2177-6.0933,0-3.6875,2.89-6.2627,7.0278-6.2627a20.05,20.05,0,0,1,6.4878,1.375c2.0259-4.872,5.3115-16.0312,8.6968-33.6328,1.2114-6.5635,12.5454-8.8852,15.3325-8.8852a2.5142,2.5142,0,0,1,2.7778,2.6923c0,.9961-.5488,1.9986-1.4585,3.6587a63.8088,63.8088,0,0,0-4.0737,8.7432C38.6688,165.9324,35.2147,173.6219,32.6654,178.1a17.0354,17.0354,0,0,0,7.5806,1.6323c7.6357,0,18.3891-9.5293,18.3891-30.7153,0-13.3-6.0054-19.4941-18.8989-19.4941-11.8389,0-20.0894,7.1376-20.0894,13.5439,0,1.4639.85,2.0615,2.479,3.0752,1.7163,1.0684,4.0664,2.5308,4.0664,6.02a7.2949,7.2949,0,0,1-7.623,7.2827c-4.8442,0-9.748-3.6694-9.748-10.6831,0-14.3286,14.35-25.1343,33.38-25.1343,14.521,0,30.15,8.3179,30.15,26.58C72.3509,173.2635,54.6932,185.5428,41.9462,185.5428Z" fill="#fefefa"/><path d="M82.9984,185.8265c-9.0225,0-14.1968-4.4619-14.1968-12.2422,0-9.8755,9.791-19.2119,20.147-19.2119,5.8564,0,9.9468,3.3559,9.9468,8.1611,0,7.57-8.1021,11.4707-16.3833,12.0732a4.0332,4.0332,0,0,0,4.3965,3.5674c6.9414,0,11.3276-5.8652,11.3715-5.9243l1.2954-1.7876,4.5162,3.5488-1.1651,1.65C102.6332,176.0765,95.598,185.8265,82.9984,185.8265Zm5.0981-25.15c-1.4487.1987-3.5258,2.8467-4.8579,7.2221C86.4159,167.0608,88.0482,164.637,88.0965,160.6766Z"/><path d="M82.9984,185.118c-8.5718,0-13.4883-4.2041-13.4883-11.5337,0-9.5112,9.4468-18.5034,19.4385-18.5034,5.4394,0,9.2383,3.0649,9.2383,7.4526,0,7.415-8.2886,11.0234-16.4986,11.4126.2959,2.4941,1.5284,4.9365,5.22,4.9365,7.3525,0,11.8989-6.1533,11.9438-6.2153l.8647-1.1929,3.4073,2.6778-.7769,1.1C102.0628,175.6551,95.2377,185.118,82.9984,185.118Zm5.27-25.1621c-2.2085,0-4.708,3.769-6.0244,8.8618,3.31-.4634,6.562-2.4214,6.562-8.3242A.5121.5121,0,0,0,88.2689,159.9559Z" fill="#fefefa"/><path d="M106.3724,185.8265c-5.7842,0-9.5215-3.2368-9.5215-8.2466,0-8.2236,8.6573-37.7026,10.7666-40.2793,2.0674-2.5269,8.1563-4.7754,11.5059-4.7754a3.4955,3.4955,0,0,1,3.6562,3.4863c0,.96-.4506,1.8365-1.2685,3.4268-.5566,1.0815-1.3154,2.5561-2.1338,4.4663-1.9609,4.6045-9.2637,24.5415-9.2637,32.91a2.1916,2.1916,0,0,0,.1158.7617c2.4316-.1011,4.9345-3.3223,6.44-5.2593l1.4077-1.81,4.4087,3.4649-1.0786,1.6338C121.1312,176.0237,114.5609,185.8265,106.3724,185.8265Z"/><path d="M106.3724,185.118c-5.3535,0-8.813-2.959-8.813-7.5381,0-7.8257,8.5962-37.3745,10.6065-39.8306,1.9028-2.3257,7.7861-4.5156,10.9575-4.5156a2.8038,2.8038,0,0,1,2.9478,2.7778,7.683,7.683,0,0,1-1.1924,3.107c-.5591,1.0864-1.3247,2.5742-2.1529,4.5068-1.9726,4.6318-9.3208,24.7119-9.3208,33.1895,0,.246.0342,1.4726.7076,1.4726,2.8139,0,5.5073-3.4648,7.1162-5.5351l.97-1.2476,3.3359,2.6216-.7192,1.0893C120.5487,175.62,114.1854,185.118,106.3724,185.118Z" fill="#fefefa"/><path d="M124.7323,185.8265c-5.7842,0-9.5215-3.2368-9.5215-8.2466,0-5.1963,1.7241-11.2676,2.9829-15.7l.0278-.0986c.231-.8135.4463-1.5743.6329-2.2652.3686-1.3857.9272-3.4819,3.9311-4.082a43.3458,43.3458,0,0,1,7.6421-1.3169,3.19,3.19,0,0,1,3.4863,3.3164c0,1.2183-.646,3.0757-1.9907,6.8281-1.4556,4.0611-3.45,9.6231-3.45,12.5533a2.1945,2.1945,0,0,0,.1157.7617c2.4317-.1011,4.9346-3.3223,6.44-5.2593l1.4077-1.81,4.4087,3.4649-1.0786,1.6338C139.4911,176.0237,132.9208,185.8265,124.7323,185.8265Zm5.185-34.4278c-4.0888,0-7.0561-2.8247-7.0561-6.7163,0-5.0278,4.2549-9.6069,8.9267-9.6069a6.3444,6.3444,0,0,1,6.6309,6.6313C138.4188,147.1653,133.849,151.3987,129.9173,151.3987Z"/><path d="M124.7323,185.118c-5.3535,0-8.813-2.959-8.813-7.5381,0-5.0977,1.7085-11.1138,2.956-15.5068.2422-.854.4688-1.6514.6631-2.3731.3623-1.36.815-3.0576,3.3858-3.5713a43.4579,43.4579,0,0,1,7.5034-1.3032,2.4994,2.4994,0,0,1,2.7778,2.6079c0,1.0986-.6684,3.0147-1.9492,6.5889-1.4736,4.1108-3.4912,9.7407-3.4912,12.7925,0,.246.0342,1.4726.7075,1.4726,2.814,0,5.5073-3.4648,7.1162-5.5351l.97-1.2476,3.336,2.6216-.7193,1.0893C138.9086,175.62,132.5458,185.118,124.7323,185.118Zm5.185-34.4278c-3.6782,0-6.3476-2.5268-6.3476-6.0078,0-4.6572,3.917-8.8984,8.2182-8.8984a5.6666,5.6666,0,0,1,5.9224,5.9228C137.71,146.7659,133.5209,150.69,129.9173,150.69Z" fill="#fefefa"/><path d="M147.767,185.8265c-9.0225,0-14.1973-4.4619-14.1973-12.2422,0-9.8755,9.791-19.2119,20.1474-19.2119,6.8116,0,9.8614,4.0986,9.8614,8.1611,0,4.5562-3.1065,7.9917-7.2256,7.9917-3.251,0-5.6113-2.1455-5.6113-5.1016a6.028,6.028,0,0,1,2.35-4.7207c-2.6084.523-6.5146,6.3121-6.5146,12.4566,0,3.4678,1.5723,5.0146,5.1,5.0146,6.8984,0,11.3311-5.8706,11.375-5.93l1.2979-1.7725,4.5107,3.5386-1.166,1.6508C167.4017,176.076,160.3783,185.8265,147.767,185.8265Z"/><path d="M147.767,185.118c-8.5723,0-13.4888-4.2041-13.4888-11.5337,0-9.5112,9.4472-18.5034,19.4389-18.5034,6.3223,0,9.1524,3.7431,9.1524,7.4526,0,4.1519-2.8018,7.2832-6.5166,7.2832-2.8408,0-4.9024-1.8476-4.9024-4.3931a5.4485,5.4485,0,0,1,2.2442-4.3086c.291-.2583.73-.6489.73-.7915,0-.332-.6739-.3676-.9629-.3676-3.1758,0-7.5938,6.6533-7.5938,13.2036,0,3.8511,1.9,5.7231,5.8086,5.7231,7.3106,0,11.8994-6.1552,11.9453-6.2177l.8662-1.1836,3.4043,2.67-.7773,1.1006C166.8314,175.6551,160.0062,185.118,147.767,185.118Z" fill="#fefefa"/><path d="M171.056,185.8265c-5.7842,0-9.5215-3.2368-9.5215-8.2466,0-5.1948,1.7227-11.26,2.98-15.689.2432-.8554.47-1.6533.6641-2.375.3691-1.3852.9277-3.4814,3.9326-4.082a43.3427,43.3427,0,0,1,7.6416-1.3169,3.19,3.19,0,0,1,3.4854,3.3164c0,1.22-.6465,3.0772-1.9913,6.8281-1.46,4.0747-3.4492,9.6294-3.4492,12.5533a2.2639,2.2639,0,0,0,.12.7612c2.43-.1045,4.9317-3.3237,6.4366-5.26l1.4072-1.8081,4.41,3.4644-1.08,1.6338C185.8148,176.0242,179.2337,185.8265,171.056,185.8265Zm5.1856-34.4278c-4.0879,0-7.0557-2.8247-7.0557-6.7163,0-5.0278,4.2549-9.6069,8.9258-9.6069a6.3451,6.3451,0,0,1,6.6318,6.6313C184.7435,147.1653,180.1732,151.3987,176.2416,151.3987Z"/><path d="M171.056,185.118c-5.3535,0-8.8125-2.959-8.8125-7.5381,0-5.0938,1.7061-11.106,2.9522-15.4956.2441-.8584.4716-1.6592.667-2.3838.3623-1.36.8144-3.0576,3.3867-3.5718a43.4472,43.4472,0,0,1,7.5029-1.3032,2.4987,2.4987,0,0,1,2.7764,2.6079c0,1.0986-.668,3.0147-1.9492,6.5889-1.4727,4.1108-3.4913,9.7407-3.4913,12.7925,0,.1508.02,1.4726.708,1.4726,2.8145,0,5.5079-3.4653,7.1172-5.5361l.97-1.2461,3.3369,2.6211-.72,1.0893C185.2328,175.62,178.87,185.118,171.056,185.118Zm5.1856-34.4278c-3.6778,0-6.3467-2.5268-6.3467-6.0078,0-4.6572,3.916-8.8984,8.2168-8.8984a5.6667,5.6667,0,0,1,5.9228,5.9228C184.0345,146.7659,179.8451,150.69,176.2416,150.69Z" fill="#fefefa"/><path d="M192.9007,186.5911c-6.2646,0-13.0068-3.8042-13.0068-12.1567,0-11.2031,9.8008-20.3174,21.8477-20.3174,6.4531,0,11.1367,4.5762,11.1367,10.8818a23.4019,23.4019,0,0,1-2.5293,9.7608,6.3186,6.3186,0,0,0,4.1777-2.4663l1.2793-1.854,1.7822,1.3857,2.668,2.0962-.9658,1.6074a12.0935,12.0935,0,0,1-10.3233,5.2822,12.4893,12.4893,0,0,1-2.6748-.2983A18.6215,18.6215,0,0,1,192.9007,186.5911Zm9.2657-26.1816c-3.5459,0-8.584,8.66-8.584,16.7451,0,1.1108.1543,2.9746,1.1885,2.9746a4.9141,4.9141,0,0,0,3.9062-2.5889,6.1479,6.1479,0,0,1-1.3564-3.8711,5.8794,5.8794,0,0,1,5.4414-6.121,5.1942,5.1942,0,0,1,.7109.0488,13.3235,13.3235,0,0,0,.8184-4.3833C204.2914,160.41,202.8558,160.41,202.1664,160.41Z"/><path d="M192.9007,185.8826c-5.9228,0-12.2978-3.5825-12.2978-11.4482,0-10.8125,9.4824-19.6089,21.1387-19.6089,6.042,0,10.4277,4.2788,10.4277,10.1733a23.48,23.48,0,0,1-2.9717,10.46c.23.0146.4912.0234.79.0234a6.85,6.85,0,0,0,5.1191-2.7817l.8564-1.2412,1.19.9253,2.1728,1.7075-.6435,1.0718a11.3964,11.3964,0,0,1-9.7159,4.9385,11.7575,11.7575,0,0,1-2.916-.3765A18.0067,18.0067,0,0,1,192.9007,185.8826Zm9.2657-26.1816c-4.2559,0-9.293,9.4609-9.293,17.4536,0,1.68.3291,3.6831,1.8975,3.6831,2.5058,0,4.0732-2.1235,4.78-3.3765a5.4025,5.4025,0,0,1-1.5215-3.792,5.1655,5.1655,0,0,1,4.7325-5.4126,4.5815,4.5815,0,0,1,1.1621.1514A14.4818,14.4818,0,0,0,205,163.2137C205,159.701,202.8675,159.701,202.1664,159.701Z" fill="#fefefa"/><path d="M242.2025,185.8265c-4.3857,0-7.4648-1.7383-8.7861-4.9239-2.9717,2.3824-7.0684,4.9239-11.02,4.9239-5.7842,0-9.5215-3.2368-9.5215-8.2466,0-4.9649,1.7256-10.8569,2.9863-15.16l.0352-.12c.3007-1.0283.5752-1.9663.79-2.7764.3662-1.3779.9209-3.4589,3.7187-4.081a43.8293,43.8293,0,0,1,7.6866-1.3257,3.19,3.19,0,0,1,3.4863,3.3164c0,1.9761-1.123,5.0259-2.4229,8.5576-1.4179,3.8535-3.0175,8.2-3.0175,10.8238a2.264,2.264,0,0,0,.12.7622c2.8232-.0777,5.418-2.8492,6.7949-5.2276,1.1045-1.9321,2.87-9.1123,3.3926-12.5957a4.39,4.39,0,0,1,3.8115-4.32,43.3721,43.3721,0,0,1,7.6416-1.3169,3.19,3.19,0,0,1,3.4863,3.3164c0,1.9761-1.123,5.0259-2.4228,8.5576-1.418,3.8535-3.0176,8.2-3.0176,10.8238a2.2639,2.2639,0,0,0,.12.7612c2.43-.1045,4.9317-3.3237,6.4365-5.26l1.4073-1.8081,4.41,3.4644-1.08,1.6338C256.9613,176.0242,250.38,185.8265,242.2025,185.8265Z"/><path d="M242.2025,185.118c-4.5586,0-7.4746-1.8975-8.4492-5.4116-2.5664,2.1723-7.1055,5.4116-11.3574,5.4116-5.3536,0-8.8125-2.959-8.8125-7.5381,0-4.8623,1.7089-10.6987,2.957-14.96.3164-1.082.6055-2.0673.83-2.914.3613-1.3565.8105-3.0425,3.1875-3.5708a43.7521,43.7521,0,0,1,7.5332-1.3091,2.499,2.499,0,0,1,2.7773,2.6079c0,1.8506-1.1035,4.8477-2.3808,8.3179-1.4336,3.8955-3.06,8.3105-3.06,11.0635,0,.1508.02,1.4726.708,1.4726,3.1719,0,6.0381-3.0073,7.5293-5.583,1.1611-2.0317,2.9375-9.2285,3.4805-12.8457.1875-1.5107.6142-3.2036,3.249-3.73a43.4921,43.4921,0,0,1,7.5029-1.3032,2.499,2.499,0,0,1,2.7774,2.6079c0,1.8506-1.1036,4.8477-2.3809,8.3179-1.4336,3.8955-3.06,8.3105-3.06,11.0635,0,.1508.02,1.4726.708,1.4726,2.8145,0,5.5078-3.4653,7.1172-5.5361l.97-1.2461,3.337,2.6211-.72,1.0893C256.3793,175.62,250.016,185.118,242.2025,185.118Z" fill="#fefefa"/><path d="M263.1957,186.3362c-13.0948,0-14.1123-7.5478-14.1123-9.8613a7.3611,7.3611,0,0,1,6.3017-7.2832,15.99,15.99,0,0,0,3.32-5.2143,14.9685,14.9685,0,0,1-1.8008-6.459,9.2846,9.2846,0,0,1,9.0108-9.5215,6.5279,6.5279,0,0,1,6.7168,6.6313c0,2.7559-2.126,6.0254-3.61,7.9732.54.6958,1.1,1.3525,1.6426,1.9907,2.3047,2.7056,4.6875,5.5034,4.6875,10.3525C275.3519,181.6522,270.3529,186.3362,263.1957,186.3362Zm-.7149-8.4331a8.4133,8.4133,0,0,1-1.2715,2.272A3.1009,3.1009,0,0,0,262.4808,177.9031Zm-1.1631-6.708a7.06,7.06,0,0,1,.628.8145c-.1338-.3789-.2784-.7456-.4248-1.0938Z"/><path d="M263.1957,185.6277c-12.4375,0-13.4034-7.0058-13.4034-9.1528a6.6093,6.6093,0,0,1,5.8731-6.5942c.9892-.7466,3.4844-4.2559,3.7881-6.0064a14.4877,14.4877,0,0,1-1.84-6.3559,8.5747,8.5747,0,0,1,8.3018-8.813,5.8351,5.8351,0,0,1,6.0078,5.9228c0,2.8067-2.499,6.33-3.7959,7.9688.6533.8755,1.334,1.6748,1.998,2.4546,2.3233,2.728,4.5176,5.3047,4.5176,9.893C274.6429,181.2347,269.9359,185.6277,263.1957,185.6277Zm-3.5059-4.8339a1.8747,1.8747,0,0,0,.9551.2138c2.5508,0,2.749-4.0551,2.749-5.2978a15.3652,15.3652,0,0,0-1.7314-6.1944l-1.2686,1.7452a5.5209,5.5209,0,0,1,1.8389,4.0239A7.6307,7.6307,0,0,1,259.69,180.7938Z" fill="#fefefa"/><path d="M41.9462,185.5428a33.1043,33.1043,0,0,1-14.0074-3.1294c-1.5688.8242-5.4892,2.7046-8.6045,2.7046-4.9922,0-8.2177-2.3916-8.2177-6.0933,0-3.6875,2.89-6.2627,7.0278-6.2627a20.05,20.05,0,0,1,6.4878,1.375c2.0259-4.872,5.3115-16.0312,8.6968-33.6328,1.2114-6.5635,12.5454-8.8852,15.3325-8.8852a2.5142,2.5142,0,0,1,2.7778,2.6923c0,.9961-.5488,1.9986-1.4585,3.6587a63.8088,63.8088,0,0,0-4.0737,8.7432C38.6688,165.9324,35.2147,173.6219,32.6654,178.1a17.0354,17.0354,0,0,0,7.5806,1.6323c7.6357,0,18.3891-9.5293,18.3891-30.7153,0-13.3-6.0054-19.4941-18.8989-19.4941-11.8389,0-20.0894,7.1376-20.0894,13.5439,0,1.4639.85,2.0615,2.479,3.0752,1.7163,1.0684,4.0664,2.5308,4.0664,6.02a7.2949,7.2949,0,0,1-7.623,7.2827c-4.8442,0-9.748-3.6694-9.748-10.6831,0-14.3286,14.35-25.1343,33.38-25.1343,14.521,0,30.15,8.3179,30.15,26.58C72.3509,173.2635,54.6932,185.5428,41.9462,185.5428Z" fill="#fefefa"/><path d="M82.9984,185.118c-8.5718,0-13.4883-4.2041-13.4883-11.5337,0-9.5112,9.4468-18.5034,19.4385-18.5034,5.4394,0,9.2383,3.0649,9.2383,7.4526,0,7.415-8.2886,11.0234-16.4986,11.4126.2959,2.4941,1.5284,4.9365,5.22,4.9365,7.3525,0,11.8989-6.1533,11.9438-6.2153l.8647-1.1929,3.4073,2.6778-.7769,1.1C102.0628,175.6551,95.2377,185.118,82.9984,185.118Zm5.27-25.1621c-2.2085,0-4.708,3.769-6.0244,8.8618,3.31-.4634,6.562-2.4214,6.562-8.3242A.5121.5121,0,0,0,88.2689,159.9559Z" fill="#fefefa"/><path d="M106.3724,185.118c-5.3535,0-8.813-2.959-8.813-7.5381,0-7.8257,8.5962-37.3745,10.6065-39.8306,1.9028-2.3257,7.7861-4.5156,10.9575-4.5156a2.8038,2.8038,0,0,1,2.9478,2.7778,7.683,7.683,0,0,1-1.1924,3.107c-.5591,1.0864-1.3247,2.5742-2.1529,4.5068-1.9726,4.6318-9.3208,24.7119-9.3208,33.1895,0,.246.0342,1.4726.7076,1.4726,2.8139,0,5.5073-3.4648,7.1162-5.5351l.97-1.2476,3.3359,2.6216-.7192,1.0893C120.5487,175.62,114.1854,185.118,106.3724,185.118Z" fill="#fefefa"/><path d="M124.7323,185.118c-5.3535,0-8.813-2.959-8.813-7.5381,0-5.0977,1.7085-11.1138,2.956-15.5068.2422-.854.4688-1.6514.6631-2.3731.3623-1.36.815-3.0576,3.3858-3.5713a43.4579,43.4579,0,0,1,7.5034-1.3032,2.4994,2.4994,0,0,1,2.7778,2.6079c0,1.0986-.6684,3.0147-1.9492,6.5889-1.4736,4.1108-3.4912,9.7407-3.4912,12.7925,0,.246.0342,1.4726.7075,1.4726,2.814,0,5.5073-3.4648,7.1162-5.5351l.97-1.2476,3.336,2.6216-.7193,1.0893C138.9086,175.62,132.5458,185.118,124.7323,185.118Zm5.185-34.4278c-3.6782,0-6.3476-2.5268-6.3476-6.0078,0-4.6572,3.917-8.8984,8.2182-8.8984a5.6666,5.6666,0,0,1,5.9224,5.9228C137.71,146.7659,133.5209,150.69,129.9173,150.69Z" fill="#fefefa"/><path d="M147.767,185.118c-8.5723,0-13.4888-4.2041-13.4888-11.5337,0-9.5112,9.4472-18.5034,19.4389-18.5034,6.3223,0,9.1524,3.7431,9.1524,7.4526,0,4.1519-2.8018,7.2832-6.5166,7.2832-2.8408,0-4.9024-1.8476-4.9024-4.3931a5.4485,5.4485,0,0,1,2.2442-4.3086c.291-.2583.73-.6489.73-.7915,0-.332-.6739-.3676-.9629-.3676-3.1758,0-7.5938,6.6533-7.5938,13.2036,0,3.8511,1.9,5.7231,5.8086,5.7231,7.3106,0,11.8994-6.1552,11.9453-6.2177l.8662-1.1836,3.4043,2.67-.7773,1.1006C166.8314,175.6551,160.0062,185.118,147.767,185.118Z" fill="#fefefa"/><path d="M171.056,185.118c-5.3535,0-8.8125-2.959-8.8125-7.5381,0-5.0938,1.7061-11.106,2.9522-15.4956.2441-.8584.4716-1.6592.667-2.3838.3623-1.36.8144-3.0576,3.3867-3.5718a43.4472,43.4472,0,0,1,7.5029-1.3032,2.4987,2.4987,0,0,1,2.7764,2.6079c0,1.0986-.668,3.0147-1.9492,6.5889-1.4727,4.1108-3.4913,9.7407-3.4913,12.7925,0,.1508.02,1.4726.708,1.4726,2.8145,0,5.5079-3.4653,7.1172-5.5361l.97-1.2461,3.3369,2.6211-.72,1.0893C185.2328,175.62,178.87,185.118,171.056,185.118Zm5.1856-34.4278c-3.6778,0-6.3467-2.5268-6.3467-6.0078,0-4.6572,3.916-8.8984,8.2168-8.8984a5.6667,5.6667,0,0,1,5.9228,5.9228C184.0345,146.7659,179.8451,150.69,176.2416,150.69Z" fill="#fefefa"/><path d="M192.9007,185.8826c-5.9228,0-12.2978-3.5825-12.2978-11.4482,0-10.8125,9.4824-19.6089,21.1387-19.6089,6.042,0,10.4277,4.2788,10.4277,10.1733a23.48,23.48,0,0,1-2.9717,10.46c.23.0146.4912.0234.79.0234a6.85,6.85,0,0,0,5.1191-2.7817l.8564-1.2412,1.19.9253,2.1728,1.7075-.6435,1.0718a11.3964,11.3964,0,0,1-9.7159,4.9385,11.7575,11.7575,0,0,1-2.916-.3765A18.0067,18.0067,0,0,1,192.9007,185.8826Zm9.2657-26.1816c-4.2559,0-9.293,9.4609-9.293,17.4536,0,1.68.3291,3.6831,1.8975,3.6831,2.5058,0,4.0732-2.1235,4.78-3.3765a5.4025,5.4025,0,0,1-1.5215-3.792,5.1655,5.1655,0,0,1,4.7325-5.4126,4.5815,4.5815,0,0,1,1.1621.1514A14.4818,14.4818,0,0,0,205,163.2137C205,159.701,202.8675,159.701,202.1664,159.701Z" fill="#fefefa"/><path d="M242.2025,185.118c-4.5586,0-7.4746-1.8975-8.4492-5.4116-2.5664,2.1723-7.1055,5.4116-11.3574,5.4116-5.3536,0-8.8125-2.959-8.8125-7.5381,0-4.8623,1.7089-10.6987,2.957-14.96.3164-1.082.6055-2.0673.83-2.914.3613-1.3565.8105-3.0425,3.1875-3.5708a43.7521,43.7521,0,0,1,7.5332-1.3091,2.499,2.499,0,0,1,2.7773,2.6079c0,1.8506-1.1035,4.8477-2.3808,8.3179-1.4336,3.8955-3.06,8.3105-3.06,11.0635,0,.1508.02,1.4726.708,1.4726,3.1719,0,6.0381-3.0073,7.5293-5.583,1.1611-2.0317,2.9375-9.2285,3.4805-12.8457.1875-1.5107.6142-3.2036,3.249-3.73a43.4921,43.4921,0,0,1,7.5029-1.3032,2.499,2.499,0,0,1,2.7774,2.6079c0,1.8506-1.1036,4.8477-2.3809,8.3179-1.4336,3.8955-3.06,8.3105-3.06,11.0635,0,.1508.02,1.4726.708,1.4726,2.8145,0,5.5078-3.4653,7.1172-5.5361l.97-1.2461,3.337,2.6211-.72,1.0893C256.3793,175.62,250.016,185.118,242.2025,185.118Z" fill="#fefefa"/><path d="M263.1957,185.6277c-12.4375,0-13.4034-7.0058-13.4034-9.1528a6.6093,6.6093,0,0,1,5.8731-6.5942c.9892-.7466,3.4844-4.2559,3.7881-6.0064a14.4877,14.4877,0,0,1-1.84-6.3559,8.5747,8.5747,0,0,1,8.3018-8.813,5.8351,5.8351,0,0,1,6.0078,5.9228c0,2.8067-2.499,6.33-3.7959,7.9688.6533.8755,1.334,1.6748,1.998,2.4546,2.3233,2.728,4.5176,5.3047,4.5176,9.893C274.6429,181.2347,269.9359,185.6277,263.1957,185.6277Zm-3.5059-4.8339a1.8747,1.8747,0,0,0,.9551.2138c2.5508,0,2.749-4.0551,2.749-5.2978a15.3652,15.3652,0,0,0-1.7314-6.1944l-1.2686,1.7452a5.5209,5.5209,0,0,1,1.8389,4.0239A7.6307,7.6307,0,0,1,259.69,180.7938Z" fill="#fefefa"/><path d="M70.9335,150.2078c0,21.7617-16.7466,33.9175-28.9873,33.9175A31.0818,31.0818,0,0,1,27.92,180.81s-5.0152,2.8906-8.5855,2.8906c-3.9951,0-6.8-1.7-6.8-4.6758s2.295-4.8452,5.61-4.8452a20.9658,20.9658,0,0,1,7.2256,1.7852c2.2949-4.76,5.95-17.5113,9.3506-35.1929,1.02-5.5254,11.561-7.7354,13.9409-7.7354,1.02,0,1.36.4248,1.36,1.2749,0,1.4453-2.55,4.2505-5.44,11.9009C37.1859,165.8489,33.5306,174.01,30.7254,178.6c0,0,3.315,2.55,9.5206,2.55,8.3305,0,19.8066-10.2007,19.8066-32.1328,0-13.5161-6.0356-20.9116-20.3164-20.9116-12.5811,0-21.5068,7.8208-21.5068,14.9614,0,4.76,6.5454,3.8252,6.5454,9.0957,0,3.57-2.8052,5.8652-6.2056,5.8652-3.9951,0-8.3306-3.06-8.3306-9.2656,0-14.4512,15.2163-23.7168,31.9624-23.7168C57.1625,125.0457,70.9335,133.4612,70.9335,150.2078Z" fill="#223a5e"/><path d="M70.9276,173.5843c0-8.4155,8.4155-17.086,18.021-17.086,4.9307,0,7.8208,2.6348,7.8208,6.0352,0,6.9707-8.7559,10.0308-16.5762,10.0308,0,4.59,2.21,7.7358,6.7154,7.7358,8.1606,0,13.0913-6.8008,13.0913-6.8008l1.19.9351s-6.5454,9.2661-18.1914,9.2661C76.9628,183.7005,70.9276,181.49,70.9276,173.5843Zm17.3413-15.0459c-3.74,0-6.7158,6.0351-7.8208,11.8159,5.8657,0,9.7759-3.2305,9.7759-9.8608A1.9225,1.9225,0,0,0,88.2689,158.5384Z" fill="#223a5e"/><path d="M118.4432,173.4993l1.19.9351s-6.12,9.2661-13.2608,9.2661c-3.74,0-7.3955-1.7-7.3955-6.1206,0-7.9907,8.7554-37.063,10.2857-38.9331s6.9707-3.9956,9.8608-3.9956a1.3889,1.3889,0,0,1,1.53,1.36c0,.85-1.4453,2.89-3.2305,7.0557-1.9551,4.59-9.4355,24.9917-9.4355,33.7476,0,1.7851.85,2.89,2.125,2.89C113.683,179.7049,116.6581,175.7947,118.4432,173.4993Z" fill="#223a5e"/><path d="M136.8031,173.4993l1.19.9351s-6.12,9.2661-13.2607,9.2661c-3.74,0-7.3955-1.7-7.3955-6.1206,0-5.8657,2.38-13.0913,3.57-17.5112.34-1.2754.5947-2.21,2.2949-2.55a43.7009,43.7009,0,0,1,7.2256-1.2754c.7651,0,1.36.2553,1.36,1.19,0,2.2949-5.44,13.9409-5.44,19.3814,0,1.7851.85,2.89,2.125,2.89C132.0428,179.7049,135.0179,175.7947,136.8031,173.4993Zm-.51-31.7925c0,4.2505-3.4848,7.566-6.3755,7.566-2.8051,0-4.93-1.7852-4.93-4.59,0-3.9106,3.3154-7.4809,6.8007-7.4809A4.2383,4.2383,0,0,1,136.2928,141.7068Z" fill="#223a5e"/><path d="M144.451,173.16c0,5.27,3.231,7.1406,7.2261,7.1406,8.1611,0,13.0908-6.8008,13.0908-6.8008l1.1905.9351s-6.5459,9.2661-18.1914,9.2661c-6.0357,0-12.0713-2.21-12.0713-10.1162,0-8.4155,8.4155-17.086,18.0214-17.086,4.9307,0,7.7354,2.6348,7.7354,6.0352s-2.21,5.8657-5.1,5.8657c-2.125,0-3.4854-1.2754-3.4854-2.9756,0-2.9751,2.9746-3.3149,2.9746-5.1,0-1.02-.7646-1.7851-2.38-1.7851C149.0423,158.5384,144.451,166.4441,144.451,173.16Z" fill="#223a5e"/><path d="M183.1273,173.4993l1.19.9351s-6.1211,9.2661-13.2617,9.2661c-3.74,0-7.3955-1.7-7.3955-6.1206,0-5.8657,2.3809-13.0913,3.57-17.5112.34-1.2754.5957-2.21,2.2959-2.55a43.6923,43.6923,0,0,1,7.2256-1.2754c.7647,0,1.3594.2553,1.3594,1.19,0,2.2949-5.4405,13.9409-5.4405,19.3814,0,1.7851.8506,2.89,2.125,2.89C178.3666,179.7049,181.3421,175.7947,183.1273,173.4993Zm-.51-31.7925c0,4.2505-3.4853,7.566-6.3759,7.566-2.8047,0-4.93-1.7852-4.93-4.59,0-3.9106,3.3144-7.4809,6.8-7.4809A4.2386,4.2386,0,0,1,182.6175,141.7068Z" fill="#223a5e"/><path d="M210.7523,164.9988c0,5.78-3.74,11.3912-3.74,11.3912s.5947.51,2.9756.51a8.2138,8.2138,0,0,0,6.29-3.4l1.19.9351a10.02,10.02,0,0,1-8.501,4.25,9.8107,9.8107,0,0,1-3.4-.5952s-4.6748,6.3754-12.6661,6.3754c-5.27,0-10.8808-3.06-10.8808-10.0307,0-9.9458,8.7558-18.1914,19.7217-18.1914C207.0121,156.243,210.7523,159.8133,210.7523,164.9988Zm-19.2959,12.1558c0,3.6553,1.4443,5.1006,3.3145,5.1006,4.5908,0,6.5459-5.1856,6.5459-5.1856a3.9582,3.9582,0,0,1-1.87-3.4c0-2.38,1.7852-3.9951,3.3155-3.9951a3.2991,3.2991,0,0,1,1.87.5952,16.3055,16.3055,0,0,0,1.7851-7.0556c0-3.06-1.4453-4.93-4.2509-4.93C196.556,158.2835,191.4564,168.994,191.4564,177.1546Z" fill="#223a5e"/><path d="M254.2738,173.4993l1.19.9351s-6.1211,9.2661-13.2617,9.2661c-3.74,0-7.3955-1.36-7.3955-6.8857-1.36,1.4453-7.3955,6.8857-12.4111,6.8857-3.74,0-7.3956-1.7-7.3956-6.1206,0-5.8657,2.6358-13.3462,3.74-17.5112.34-1.2754.5957-2.21,2.125-2.55a43.7252,43.7252,0,0,1,7.2256-1.2754c.7656,0,1.36.2553,1.36,1.19,0,3.57-5.44,13.9409-5.44,19.3814,0,1.7851.8506,2.89,2.125,2.89,3.57,0,6.8857-3.06,8.7559-6.2905,1.36-2.38,3.1455-9.9458,3.6552-13.3457.17-1.36.4248-2.21,2.125-2.55a43.7269,43.7269,0,0,1,7.2256-1.2754c.7656,0,1.36.2553,1.36,1.19,0,3.57-5.44,13.9409-5.44,19.3814,0,1.7851.8506,2.89,2.125,2.89C249.513,179.7049,252.4886,175.7947,254.2738,173.4993Z" fill="#223a5e"/><path d="M263.1957,184.21c-9.9463,0-11.9864-4.59-11.9864-7.7354,0-2.6352,2.21-5.1855,4.7608-5.1855.9345,0,4.9306-5.27,4.9306-7.7359a13.5984,13.5984,0,0,1-1.87-6.0351,7.1909,7.1909,0,0,1,6.8848-7.3955,4.4434,4.4434,0,0,1,4.5908,4.5053c0,3.1451-4.165,7.9053-4.165,7.9053,3.0595,4.5054,6.8847,6.7158,6.8847,12.4111S268.9759,184.21,263.1957,184.21Zm-4.7608-12.6661a4.6522,4.6522,0,0,1,2.3809,3.74A6.6779,6.6779,0,0,1,257.84,180.47a2.5977,2.5977,0,0,0,2.8047,1.9551c2.6357,0,4.166-2.55,4.166-6.7153s-2.9756-8.8408-2.9756-8.8408Z" fill="#223a5e"/><path d="M58.6493,257.2894a33.8962,33.8962,0,0,1-13.9942-3.0459c-1.7671.9033-5.5381,2.622-8.6181,2.622-5.4224,0-8.9258-2.67-8.9258-6.8017,0-4.1045,3.1811-6.9717,7.7363-6.9717a19.54,19.54,0,0,1,6.0855,1.1865c1.228-3.1269,4.5019-12.5869,8.4033-32.87,1.1245-6.0986,9.9292-8.7021,14.2974-9.3125a27.9973,27.9973,0,0,0-7.1944-.8262c-11.4214,0-19.3808,6.7647-19.3808,12.837,0,1.05.5239,1.4638,2.1445,2.4726,1.7524,1.0908,4.4,2.7393,4.4,6.6231a7.9872,7.9872,0,0,1-8.3311,7.9912c-5.1968,0-10.457-3.9131-10.457-11.3916,0-14.7325,14.6548-25.8428,34.0889-25.8428,14.8623,0,30.8584,8.54,30.8584,27.2881C89.7626,244.764,71.6932,257.2894,58.6493,257.2894Zm-8.2881-8.4746a16.9577,16.9577,0,0,0,6.5879,1.248c7.3413,0,17.6806-9.31,17.6806-30.0068,0-7.4981-1.8686-12.5987-5.8667-15.5713a4.1615,4.1615,0,0,1,.0874.8662c0,1.1787-.5815,2.24-1.5454,4a63.0874,63.0874,0,0,0-4.0322,8.6514C57.1024,234.3851,53.3089,243.4466,50.3612,248.8148Z"/><path d="M58.6493,256.58a33.1076,33.1076,0,0,1-14.0073-3.1279c-1.5689.8242-5.49,2.7041-8.605,2.7041-4.9917,0-8.2173-2.3916-8.2173-6.0928,0-3.6875,2.89-6.2627,7.0278-6.2627a20.0229,20.0229,0,0,1,6.4878,1.375c2.0254-4.8721,5.311-16.03,8.6968-33.6338,1.21-6.5625,12.5449-8.8838,15.332-8.8838a2.5139,2.5139,0,0,1,2.7779,2.6924c0,.9961-.5489,1.999-1.4585,3.6592a63.7673,63.7673,0,0,0-4.0738,8.7422C55.3719,236.97,51.9178,244.66,49.368,249.139a17.0347,17.0347,0,0,0,7.5811,1.6328c7.6357,0,18.3891-9.53,18.3891-30.7158,0-13.3-6.0053-19.4951-18.8989-19.4951C44.6,200.5609,36.35,207.7,36.35,214.1068c0,1.4638.85,2.0605,2.4785,3.0742,1.7163,1.0683,4.0664,2.5312,4.0664,6.0215a7.2945,7.2945,0,0,1-7.6226,7.2822c-4.8442,0-9.7485-3.669-9.7485-10.6826,0-14.3291,14.3506-25.1338,33.38-25.1338,14.521,0,30.15,8.3174,30.15,26.5791C89.0541,244.3021,71.3963,256.58,58.6493,256.58Z" fill="#fefefa"/><path d="M95.0262,256.8655c-5.7842,0-9.5215-3.2373-9.5215-8.247,0-5.1963,1.7237-11.2676,2.983-15.7012.2417-.8516.4668-1.6455.6606-2.3633.3687-1.3847.9268-3.4805,3.9312-4.081a43.078,43.078,0,0,1,7.642-1.3164,3.19,3.19,0,0,1,3.4864,3.3154c0,1.2187-.6465,3.0762-1.9912,6.8281-1.4561,4.0645-3.4493,9.626-3.4493,12.5527a2.205,2.205,0,0,0,.1158.7627c2.4292-.1005,4.9321-3.32,6.437-5.2558l1.41-1.8125,4.41,3.4648-1.0791,1.6338C109.785,247.0628,103.2152,256.8655,95.0262,256.8655Zm5.1846-34.4277c-4.0884,0-7.0557-2.8242-7.0557-6.7158,0-5.0283,4.2549-9.6084,8.9268-9.6084a6.3448,6.3448,0,0,1,6.6309,6.6318C108.7128,218.2034,104.1424,222.4378,100.2108,222.4378Z"/><path d="M95.0262,256.1566c-5.3535,0-8.813-2.959-8.813-7.5381,0-5.0977,1.7085-11.1143,2.9561-15.5078.2427-.8545.4687-1.6514.6631-2.3721.3623-1.36.8144-3.0567,3.3857-3.57a43.188,43.188,0,0,1,7.5034-1.3028,2.4989,2.4989,0,0,1,2.7779,2.6065c0,1.0986-.6685,3.0146-1.95,6.5889-1.4732,4.1113-3.4908,9.7412-3.4908,12.7919,0,.2461.0342,1.4737.7076,1.4737,2.813,0,5.5053-3.4639,7.1142-5.5332l.9717-1.249,3.3364,2.622-.7192,1.0889C109.2025,246.66,102.8392,256.1566,95.0262,256.1566Zm5.1846-34.4278c-3.6777,0-6.3472-2.5263-6.3472-6.0068,0-4.6582,3.917-8.8994,8.2183-8.8994a5.6666,5.6666,0,0,1,5.9224,5.9228C108.0043,217.805,103.8148,221.7288,100.2108,221.7288Z" fill="#fefefa"/><path d="M131.746,256.8655c-5.7842,0-9.5215-3.2373-9.5215-8.247a29.6438,29.6438,0,0,1,2.101-9.6289,24.2937,24.2937,0,0,0,1.4493-5.4307,15.5759,15.5759,0,0,0-6.4087,5.98,42.7117,42.7117,0,0,0-3.4307,13.16c0,4.167-6.9746,4.167-9.2666,4.167a3.1,3.1,0,0,1-3.2305-3.3173c0-5.1573,2.2388-14.5625,3.5762-20.1817.2554-1.0713.4761-2,.6416-2.7285.3794-1.5225.8472-3.3994,3.6587-4.1367,4.043-1.0557,5.5659-1.3447,7.0855-1.3447a3.19,3.19,0,0,1,3.4863,3.3154c0,.0371-.0005.0742-.001.1133,2.3838-1.4385,5.9785-3.1748,9.4356-3.1748,5.0058,0,7.6513,2.6171,7.6513,7.5673a22.5189,22.5189,0,0,1-1.6128,6.7706c-.8779,2.5712-1.8725,5.4834-1.8725,8.1044a2.2886,2.2886,0,0,0,.12.7627c2.43-.1054,4.9311-3.3232,6.436-5.2587l1.4077-1.81,4.41,3.4648-1.0791,1.6338C146.5057,247.0628,139.9364,256.8655,131.746,256.8655Z"/><path d="M131.746,256.1566c-5.3536,0-8.813-2.959-8.813-7.5381a29.0981,29.0981,0,0,1,2.0634-9.4,21.035,21.035,0,0,0,1.5069-6.1563,1.68,1.68,0,0,0-.0322-.3652c-.022-.001-.0489-.0029-.0806-.0029-1.6953,0-6.1763,3.5644-7.6582,6.5273a42.9058,42.9058,0,0,0-3.5054,13.4775c0,2.3272-2.7993,3.4581-8.5581,3.4581a2.4047,2.4047,0,0,1-2.522-2.6084c0-5.0743,2.2271-14.43,3.5577-20.02.2553-1.0722.477-2.0039.6425-2.7343.376-1.5079.7432-2.9766,3.1475-3.6075,3.9726-1.0371,5.4565-1.3213,6.9058-1.3213a2.4989,2.4989,0,0,1,2.7778,2.6065,9.066,9.066,0,0,1-.1626,1.5058c2.9321-1.9638,6.8672-3.8584,10.3057-3.8584,4.6069,0,6.9428,2.3077,6.9428,6.8584a22.0955,22.0955,0,0,1-1.5757,6.544c-.895,2.6211-1.91,5.5928-1.91,8.331,0,.15.02,1.4737.7075,1.4737,2.814,0,5.5073-3.4649,7.1167-5.5352l.97-1.247,3.3364,2.622-.7192,1.0889C145.9232,246.66,139.5589,256.1566,131.746,256.1566Z" fill="#fefefa"/><path d="M168.4657,256.8655c-5.7842,0-9.5215-3.2373-9.5215-8.247a29.627,29.627,0,0,1,2.1025-9.6309,24.3121,24.3121,0,0,0,1.4483-5.4287,15.5722,15.5722,0,0,0-6.4092,5.98,42.7117,42.7117,0,0,0-3.4307,13.16c0,4.167-6.9746,4.167-9.2666,4.167a3.1,3.1,0,0,1-3.2314-3.3173c0-5.1631,2.2412-14.5743,3.5806-20.1973.2563-1.0762.4746-1.9932.6381-2.7139.3794-1.5224.8472-3.3984,3.6587-4.1357,4.0425-1.0557,5.5659-1.3447,7.0855-1.3447a3.1893,3.1893,0,0,1,3.4853,3.3154c0,.0371-.0009.0752-.0019.1133,2.3847-1.4375,5.98-3.1748,9.4375-3.1748,5.0049,0,7.6513,2.6171,7.6513,7.5673a22.5245,22.5245,0,0,1-1.6132,6.7735c-.878,2.5683-1.8721,5.48-1.8721,8.1015a2.1985,2.1985,0,0,0,.1152.7627c2.4326-.1005,4.9356-3.3222,6.44-5.2587l1.4082-1.8106,4.4082,3.4658-1.0782,1.6338C183.2254,247.0628,176.6669,256.8655,168.4657,256.8655Z"/><path d="M168.4657,256.1566c-5.3535,0-8.8125-2.959-8.8125-7.5381a29.0824,29.0824,0,0,1,2.0635-9.4,21.05,21.05,0,0,0,1.5068-6.1563,1.7476,1.7476,0,0,0-.0322-.3652c-.0225-.001-.0489-.0029-.0811-.0029-1.6953,0-6.1767,3.5644-7.6582,6.5273a42.8943,42.8943,0,0,0-3.5058,13.4775c0,2.3272-2.7989,3.4581-8.5577,3.4581a2.4049,2.4049,0,0,1-2.5229-2.6084c0-5.0791,2.23-14.4405,3.5615-20.0332.2539-1.0665.4746-1.9932.64-2.7217.3759-1.5069.7431-2.9756,3.1474-3.6065,3.9722-1.0371,5.4566-1.3213,6.9058-1.3213a2.4981,2.4981,0,0,1,2.7763,2.6065,8.9839,8.9839,0,0,1-.1621,1.5058c2.9327-1.9638,6.8672-3.8584,10.3067-3.8584,4.6064,0,6.9424,2.3077,6.9424,6.8584a22.0809,22.0809,0,0,1-1.5752,6.544c-.8955,2.6211-1.91,5.5928-1.91,8.331,0,.2461.0342,1.4737.708,1.4737,2.8145,0,5.5078-3.4649,7.1162-5.5352l.9707-1.248,3.335,2.623-.7188,1.0889C182.6424,246.66,176.2792,256.1566,168.4657,256.1566Z" fill="#fefefa"/><path d="M191.4989,256.8655c-9.0225,0-14.1973-4.4629-14.1973-12.2431,0-9.875,9.791-19.2119,20.1475-19.2119,5.8564,0,9.9472,3.3564,9.9472,8.1611,0,7.5693-8.1025,11.4707-16.3847,12.0732a4.0342,4.0342,0,0,0,4.3974,3.5684c6.8721,0,11.1963-5.69,11.377-5.9326l1.2949-1.77,4.5117,3.54-1.166,1.65C211.1346,247.1146,204.119,256.8655,191.4989,256.8655Zm5.0986-25.15c-1.4492.1983-3.5263,2.8467-4.8584,7.2237C194.9169,238.1009,196.55,235.6761,196.5975,231.7151Z"/><path d="M191.4989,256.1566c-8.5723,0-13.4883-4.2041-13.4883-11.5342,0-9.5108,9.4463-18.503,19.4385-18.503,5.4394,0,9.2383,3.0645,9.2383,7.4522,0,7.415-8.2891,11.0234-16.4991,11.4131.2959,2.4941,1.5284,4.9375,5.2207,4.9375,7.3106,0,11.9-6.1563,11.9454-6.2178l.8662-1.1846,3.4043,2.6719-.7774,1.1C210.5633,246.6946,203.7381,256.1566,191.4989,256.1566Zm5.27-25.1622c-2.209,0-4.708,3.77-6.0244,8.8633,3.31-.4638,6.5625-2.4218,6.5625-8.3252A.5124.5124,0,0,0,196.7694,230.9944Z" fill="#fefefa"/><path d="M225.4989,256.8655c-5.7842,0-9.5215-3.5039-9.5215-8.9267,0-3.4561,1.2734-7.3018,2.1162-9.8467.1172-.3545.2334-.708.335-1.0244-.3106-.1094-.6573-.2149-.9649-.2969a52.9918,52.9918,0,0,1-6.4258,10.586l-1.3066,1.7148-4.4336-3.48,1.0908-1.6367c3.6553-5.4824,5.5088-8.9766,5.5088-10.3828,0-.0137-.001-.0283-.0019-.042-1.376-1.1289-4.1631-3.8887-4.1631-7.6924,0-5.2461,3.8066-7.9912,7.5664-7.9912,4.1045,0,6.9707,2.7617,6.9707,6.7158a10.7411,10.7411,0,0,1-.6377,3.9922c.0918.002.19.0029.2969.0029a13.4991,13.4991,0,0,0,5.2871-1.1875,5.893,5.893,0,0,1,2.1933-.5976c2.6768,0,4.6768,2.6475,4.6768,5.0146,0,1.0284-.49,2.1182-1.5107,4.29-1.3985,2.9814-3.5049,7.4756-3.5049,11.6924a1.24,1.24,0,0,0,.2373.8652c2.4-.0166,4.96-3.31,6.4883-5.2773l1.4082-1.81,4.41,3.4648-1.08,1.6338C240.2577,247.0638,233.6766,256.8655,225.4989,256.8655Z"/><path d="M225.4989,256.1566c-5.4356,0-8.8125-3.1485-8.8125-8.2178,0-3.3369,1.251-7.12,2.08-9.624.1845-.56.4-1.211.5293-1.6622a11.4956,11.4956,0,0,0-2.2461-.7031l-.03.0684a51.5687,51.5687,0,0,1-6.5449,10.9092l-.8711,1.1435-3.3526-2.6318.7276-1.0908c1.539-2.3086,5.6279-8.4424,5.6279-10.7764a1.0119,1.0119,0,0,0-.1045-.4629c-1.1914-.9453-4.06-3.6318-4.06-7.2715,0-4.7812,3.4492-7.2822,6.8574-7.2822,3.7451,0,6.2617,2.4141,6.2617,6.0068a9.7145,9.7145,0,0,1-.8086,4.2744c-.0625.1456-.1074.2559-.1406.3448a7.8124,7.8124,0,0,0,1.3174.0849,14.1209,14.1209,0,0,0,5.5586-1.2422,5.3362,5.3362,0,0,1,1.9218-.5429c2.2344,0,3.9678,2.3144,3.9678,4.3056,0,.875-.4678,1.9121-1.4433,3.9893-1.4219,3.0322-3.5723,7.6143-3.5723,11.9932,0,.8877.3779,1.5576.8779,1.5576,2.8145,0,5.5078-3.4649,7.1162-5.5352l.9707-1.247,3.3369,2.622-.72,1.0889C239.6756,246.66,233.3124,256.1566,225.4989,256.1566Z" fill="#fefefa"/><path d="M246.493,257.3753c-13.0947,0-14.1123-7.5488-14.1123-9.8623a7.36,7.36,0,0,1,6.3018-7.2822,16.014,16.014,0,0,0,3.32-5.2139,14.9437,14.9437,0,0,1-1.8008-6.459,9.2851,9.2851,0,0,1,9.0108-9.5224,6.5285,6.5285,0,0,1,6.7167,6.6318c0,2.7568-2.1259,6.0254-3.6113,7.9727.5449.7,1.1016,1.3544,1.6436,1.99,2.3056,2.707,4.6875,5.5049,4.6875,10.3535C258.6493,252.6907,253.65,257.3753,246.493,257.3753Zm-.7148-8.4346a8.4136,8.4136,0,0,1-1.2725,2.2744A3.1018,3.1018,0,0,0,245.7782,248.9407Zm-1.1631-6.707a6.9321,6.9321,0,0,1,.6269.8135c-.1337-.3789-.2773-.7451-.4248-1.0928Z"/><path d="M246.493,256.6663c-12.4375,0-13.4033-7.0058-13.4033-9.1533a6.6091,6.6091,0,0,1,5.8731-6.5937c.9892-.7471,3.4843-4.2549,3.788-6.0059a14.4845,14.4845,0,0,1-1.84-6.3555,8.5746,8.5746,0,0,1,8.3018-8.8135,5.8348,5.8348,0,0,1,6.0078,5.9229c0,2.8066-2.4991,6.3291-3.7959,7.9678.6533.8759,1.334,1.6758,1.998,2.455,2.3233,2.7286,4.5176,5.3047,4.5176,9.8936C257.94,252.2737,253.2333,256.6663,246.493,256.6663Zm-3.5058-4.834a1.8671,1.8671,0,0,0,.955.2149c2.5508,0,2.7491-4.0547,2.7491-5.2979a15.37,15.37,0,0,0-1.7315-6.1953l-1.2685,1.7451a5.5234,5.5234,0,0,1,1.8388,4.0244A7.6306,7.6306,0,0,1,242.9872,251.8323Z" fill="#fefefa"/><path d="M58.6493,256.58a33.1076,33.1076,0,0,1-14.0073-3.1279c-1.5689.8242-5.49,2.7041-8.605,2.7041-4.9917,0-8.2173-2.3916-8.2173-6.0928,0-3.6875,2.89-6.2627,7.0278-6.2627a20.0229,20.0229,0,0,1,6.4878,1.375c2.0254-4.8721,5.311-16.03,8.6968-33.6338,1.21-6.5625,12.5449-8.8838,15.332-8.8838a2.5139,2.5139,0,0,1,2.7779,2.6924c0,.9961-.5489,1.999-1.4585,3.6592a63.7673,63.7673,0,0,0-4.0738,8.7422C55.3719,236.97,51.9178,244.66,49.368,249.139a17.0347,17.0347,0,0,0,7.5811,1.6328c7.6357,0,18.3891-9.53,18.3891-30.7158,0-13.3-6.0053-19.4951-18.8989-19.4951C44.6,200.5609,36.35,207.7,36.35,214.1068c0,1.4638.85,2.0605,2.4785,3.0742,1.7163,1.0683,4.0664,2.5312,4.0664,6.0215a7.2945,7.2945,0,0,1-7.6226,7.2822c-4.8442,0-9.7485-3.669-9.7485-10.6826,0-14.3291,14.3506-25.1338,33.38-25.1338,14.521,0,30.15,8.3174,30.15,26.5791C89.0541,244.3021,71.3963,256.58,58.6493,256.58Z" fill="#fefefa"/><path d="M95.0262,256.1566c-5.3535,0-8.813-2.959-8.813-7.5381,0-5.0977,1.7085-11.1143,2.9561-15.5078.2427-.8545.4687-1.6514.6631-2.3721.3623-1.36.8144-3.0567,3.3857-3.57a43.188,43.188,0,0,1,7.5034-1.3028,2.4989,2.4989,0,0,1,2.7779,2.6065c0,1.0986-.6685,3.0146-1.95,6.5889-1.4732,4.1113-3.4908,9.7412-3.4908,12.7919,0,.2461.0342,1.4737.7076,1.4737,2.813,0,5.5053-3.4639,7.1142-5.5332l.9717-1.249,3.3364,2.622-.7192,1.0889C109.2025,246.66,102.8392,256.1566,95.0262,256.1566Zm5.1846-34.4278c-3.6777,0-6.3472-2.5263-6.3472-6.0068,0-4.6582,3.917-8.8994,8.2183-8.8994a5.6666,5.6666,0,0,1,5.9224,5.9228C108.0043,217.805,103.8148,221.7288,100.2108,221.7288Z" fill="#fefefa"/><path d="M131.746,256.1566c-5.3536,0-8.813-2.959-8.813-7.5381a29.0981,29.0981,0,0,1,2.0634-9.4,21.035,21.035,0,0,0,1.5069-6.1563,1.68,1.68,0,0,0-.0322-.3652c-.022-.001-.0489-.0029-.0806-.0029-1.6953,0-6.1763,3.5644-7.6582,6.5273a42.9058,42.9058,0,0,0-3.5054,13.4775c0,2.3272-2.7993,3.4581-8.5581,3.4581a2.4047,2.4047,0,0,1-2.522-2.6084c0-5.0743,2.2271-14.43,3.5577-20.02.2553-1.0722.477-2.0039.6425-2.7343.376-1.5079.7432-2.9766,3.1475-3.6075,3.9726-1.0371,5.4565-1.3213,6.9058-1.3213a2.4989,2.4989,0,0,1,2.7778,2.6065,9.066,9.066,0,0,1-.1626,1.5058c2.9321-1.9638,6.8672-3.8584,10.3057-3.8584,4.6069,0,6.9428,2.3077,6.9428,6.8584a22.0955,22.0955,0,0,1-1.5757,6.544c-.895,2.6211-1.91,5.5928-1.91,8.331,0,.15.02,1.4737.7075,1.4737,2.814,0,5.5073-3.4649,7.1167-5.5352l.97-1.247,3.3364,2.622-.7192,1.0889C145.9232,246.66,139.5589,256.1566,131.746,256.1566Z" fill="#fefefa"/><path d="M168.4657,256.1566c-5.3535,0-8.8125-2.959-8.8125-7.5381a29.0824,29.0824,0,0,1,2.0635-9.4,21.05,21.05,0,0,0,1.5068-6.1563,1.7476,1.7476,0,0,0-.0322-.3652c-.0225-.001-.0489-.0029-.0811-.0029-1.6953,0-6.1767,3.5644-7.6582,6.5273a42.8943,42.8943,0,0,0-3.5058,13.4775c0,2.3272-2.7989,3.4581-8.5577,3.4581a2.4049,2.4049,0,0,1-2.5229-2.6084c0-5.0791,2.23-14.4405,3.5615-20.0332.2539-1.0665.4746-1.9932.64-2.7217.3759-1.5069.7431-2.9756,3.1474-3.6065,3.9722-1.0371,5.4566-1.3213,6.9058-1.3213a2.4981,2.4981,0,0,1,2.7763,2.6065,8.9839,8.9839,0,0,1-.1621,1.5058c2.9327-1.9638,6.8672-3.8584,10.3067-3.8584,4.6064,0,6.9424,2.3077,6.9424,6.8584a22.0809,22.0809,0,0,1-1.5752,6.544c-.8955,2.6211-1.91,5.5928-1.91,8.331,0,.2461.0342,1.4737.708,1.4737,2.8145,0,5.5078-3.4649,7.1162-5.5352l.9707-1.248,3.335,2.623-.7188,1.0889C182.6424,246.66,176.2792,256.1566,168.4657,256.1566Z" fill="#fefefa"/><path d="M191.4989,256.1566c-8.5723,0-13.4883-4.2041-13.4883-11.5342,0-9.5108,9.4463-18.503,19.4385-18.503,5.4394,0,9.2383,3.0645,9.2383,7.4522,0,7.415-8.2891,11.0234-16.4991,11.4131.2959,2.4941,1.5284,4.9375,5.2207,4.9375,7.3106,0,11.9-6.1563,11.9454-6.2178l.8662-1.1846,3.4043,2.6719-.7774,1.1C210.5633,246.6946,203.7381,256.1566,191.4989,256.1566Zm5.27-25.1622c-2.209,0-4.708,3.77-6.0244,8.8633,3.31-.4638,6.5625-2.4218,6.5625-8.3252A.5124.5124,0,0,0,196.7694,230.9944Z" fill="#fefefa"/><path d="M225.4989,256.1566c-5.4356,0-8.8125-3.1485-8.8125-8.2178,0-3.3369,1.251-7.12,2.08-9.624.1845-.56.4-1.211.5293-1.6622a11.4956,11.4956,0,0,0-2.2461-.7031l-.03.0684a51.5687,51.5687,0,0,1-6.5449,10.9092l-.8711,1.1435-3.3526-2.6318.7276-1.0908c1.539-2.3086,5.6279-8.4424,5.6279-10.7764a1.0119,1.0119,0,0,0-.1045-.4629c-1.1914-.9453-4.06-3.6318-4.06-7.2715,0-4.7812,3.4492-7.2822,6.8574-7.2822,3.7451,0,6.2617,2.4141,6.2617,6.0068a9.7145,9.7145,0,0,1-.8086,4.2744c-.0625.1456-.1074.2559-.1406.3448a7.8124,7.8124,0,0,0,1.3174.0849,14.1209,14.1209,0,0,0,5.5586-1.2422,5.3362,5.3362,0,0,1,1.9218-.5429c2.2344,0,3.9678,2.3144,3.9678,4.3056,0,.875-.4678,1.9121-1.4433,3.9893-1.4219,3.0322-3.5723,7.6143-3.5723,11.9932,0,.8877.3779,1.5576.8779,1.5576,2.8145,0,5.5078-3.4649,7.1162-5.5352l.9707-1.247,3.3369,2.622-.72,1.0889C239.6756,246.66,233.3124,256.1566,225.4989,256.1566Z" fill="#fefefa"/><path d="M246.493,256.6663c-12.4375,0-13.4033-7.0058-13.4033-9.1533a6.6091,6.6091,0,0,1,5.8731-6.5937c.9892-.7471,3.4843-4.2549,3.788-6.0059a14.4845,14.4845,0,0,1-1.84-6.3555,8.5746,8.5746,0,0,1,8.3018-8.8135,5.8348,5.8348,0,0,1,6.0078,5.9229c0,2.8066-2.4991,6.3291-3.7959,7.9678.6533.8759,1.334,1.6758,1.998,2.455,2.3233,2.7286,4.5176,5.3047,4.5176,9.8936C257.94,252.2737,253.2333,256.6663,246.493,256.6663Zm-3.5058-4.834a1.8671,1.8671,0,0,0,.955.2149c2.5508,0,2.7491-4.0547,2.7491-5.2979a15.37,15.37,0,0,0-1.7315-6.1953l-1.2685,1.7451a5.5234,5.5234,0,0,1,1.8388,4.0244A7.6306,7.6306,0,0,1,242.9872,251.8323Z" fill="#fefefa"/><path d="M87.6363,221.2469c0,21.7617-16.7465,33.917-28.9873,33.917a31.0809,31.0809,0,0,1-14.0263-3.3155s-5.0152,2.8907-8.5855,2.8907c-3.9951,0-6.8-1.7-6.8-4.6758s2.2949-4.8447,5.61-4.8447a20.9668,20.9668,0,0,1,7.2256,1.7851c2.2949-4.7607,5.95-17.5117,9.3505-35.1933,1.02-5.5254,11.5611-7.7354,13.941-7.7354,1.02,0,1.36.4248,1.36,1.2754,0,1.4453-2.55,4.25-5.44,11.9-7.3955,19.6367-11.0508,27.7978-13.856,32.3877,0,0,3.315,2.5508,9.52,2.5508,8.3306,0,19.8067-10.2012,19.8067-32.1328,0-13.5166-6.0357-20.9122-20.3164-20.9122-12.5811,0-21.5069,7.8213-21.5069,14.962,0,4.76,6.5454,3.8252,6.5454,9.0957,0,3.57-2.8051,5.8652-6.2055,5.8652-3.9951,0-8.3306-3.0605-8.3306-9.2656,0-14.4512,15.2163-23.7168,31.9624-23.7168C73.8653,196.0848,87.6363,204.5,87.6363,221.2469Z" fill="#223a5e"/><path d="M107.0968,244.5379l1.19.9355s-6.12,9.2657-13.2607,9.2657c-3.74,0-7.3955-1.7-7.3955-6.12,0-5.8663,2.38-13.0918,3.57-17.5118.34-1.2754.5947-2.21,2.2949-2.55a43.6442,43.6442,0,0,1,7.2256-1.2754c.7651,0,1.36.2549,1.36,1.19,0,2.2949-5.44,13.94-5.44,19.3808,0,1.7852.85,2.8907,2.125,2.8907C102.3365,250.744,105.3116,246.8338,107.0968,244.5379Zm-.51-31.792c0,4.25-3.4848,7.5654-6.3755,7.5654-2.8051,0-4.93-1.7851-4.93-4.59,0-3.9111,3.3154-7.4814,6.8007-7.4814A4.2384,4.2384,0,0,1,106.5865,212.7459Z" fill="#223a5e"/><path d="M143.817,244.5379l1.19.9355s-6.1206,9.2657-13.2612,9.2657c-3.74,0-7.3955-1.7-7.3955-6.12,0-5.8663,3.57-11.2217,3.57-15.5567,0-1.1055-.4253-1.7851-1.53-1.7851-2.4653,0-7.31,4.08-8.9258,7.3105-2.04,4.25-3.6552,11.3906-3.6552,14.1113,0,2.04-6.2906,2.04-7.1406,2.04-.68,0-1.105-.34-1.105-1.1905,0-5.8652,3.1455-17.9365,4.1655-22.4414.34-1.36.51-2.125,2.125-2.55,3.91-1.02,5.27-1.2754,6.5454-1.2754.7651,0,1.36.2549,1.36,1.19a20.1839,20.1839,0,0,1-1.2754,5.3545c2.04-2.125,8.0757-6.29,12.8364-6.29,4.42,0,5.5254,2.2949,5.5254,5.44,0,3.74-3.4854,9.4355-3.4854,14.8759,0,1.7852.85,2.8907,2.125,2.8907C139.0567,250.744,142.0318,246.8338,143.817,244.5379Z" fill="#223a5e"/><path d="M180.5367,244.5379l1.19.9355s-6.12,9.2657-13.2608,9.2657c-3.74,0-7.3955-1.7-7.3955-6.12,0-5.8663,3.57-11.2217,3.57-15.5567,0-1.1055-.4248-1.7851-1.53-1.7851-2.4649,0-7.3106,4.08-8.9258,7.3105-2.04,4.25-3.6553,11.3906-3.6553,14.1113,0,2.04-6.29,2.04-7.1406,2.04-.68,0-1.105-.34-1.105-1.1905,0-5.8652,3.1455-17.9365,4.1655-22.4414.34-1.36.51-2.125,2.125-2.55,3.91-1.02,5.27-1.2754,6.5459-1.2754.7647,0,1.3594.2549,1.3594,1.19a20.1932,20.1932,0,0,1-1.2744,5.3545c2.04-2.125,8.0752-6.29,12.8359-6.29,4.42,0,5.5254,2.2949,5.5254,5.44,0,3.74-3.4853,9.4355-3.4853,14.8759,0,1.7852.85,2.8907,2.125,2.8907C175.776,250.744,178.7516,246.8338,180.5367,244.5379Z" fill="#223a5e"/><path d="M179.4274,244.6229c0-8.4151,8.416-17.086,18.0214-17.086,4.9307,0,7.8213,2.6348,7.8213,6.0352,0,6.9707-8.7558,10.0312-16.5771,10.0312,0,4.59,2.2109,7.7354,6.7158,7.7354,8.1611,0,13.0908-6.8008,13.0908-6.8008l1.19.9355s-6.5459,9.2657-18.1914,9.2657C185.4635,254.7391,179.4274,252.5291,179.4274,244.6229Zm17.3417-15.0459c-3.74,0-6.7158,6.0351-7.82,11.8164,5.8653,0,9.7754-3.2305,9.7754-9.8614A1.923,1.923,0,0,0,196.7691,229.577Z" fill="#223a5e"/><path d="M237.57,244.5379l1.1905.9355s-6.1211,9.2657-13.2618,9.2657c-4.5048,0-7.3955-2.38-7.3955-6.8008,0-4.6748,2.7207-10.541,2.7207-11.7305,0-.8506-3.4-1.7-3.91-1.7-.5957,0-.8506.17-1.19.9346a50.2712,50.2712,0,0,1-6.376,10.626l-1.1895-.9346c2.38-3.57,5.8653-8.9258,5.8653-11.5615a2.0474,2.0474,0,0,0-.5948-1.5293c-1.2754-1.02-3.57-3.3154-3.57-6.2061,0-3.9951,2.8047-5.8652,5.44-5.8652s4.8448,1.4453,4.8448,4.59c0,3.3155-1.02,3.74-1.02,4.9307,0,.8506.7647,1.19,2.8047,1.19,4.0811,0,6.5459-1.7851,7.4805-1.7851,1.36,0,2.5508,1.6152,2.5508,2.89,0,1.7852-5.0156,8.9258-5.0156,15.9815,0,1.7851,1.02,2.9756,2.2949,2.9756C232.8092,250.744,235.7848,246.8338,237.57,244.5379Z" fill="#223a5e"/><path d="M246.4928,255.2488c-9.9463,0-11.9863-4.59-11.9863-7.7353,0-2.6348,2.21-5.1856,4.7607-5.1856.9346,0,4.9307-5.27,4.9307-7.7353a13.6013,13.6013,0,0,1-1.87-6.0352,7.1906,7.1906,0,0,1,6.8848-7.3955,4.443,4.443,0,0,1,4.5908,4.5049c0,3.1455-4.165,7.9053-4.165,7.9053,3.06,4.5058,6.8848,6.7158,6.8848,12.4111S252.2731,255.2488,246.4928,255.2488Zm-4.7608-12.666a4.6522,4.6522,0,0,1,2.3809,3.74,6.6779,6.6779,0,0,1-2.9756,5.1855,2.5978,2.5978,0,0,0,2.8047,1.9551c2.6357,0,4.166-2.55,4.166-6.7149s-2.9756-8.8408-2.9756-8.8408Z" fill="#223a5e"/></g></svg>